<svg width="32" height="41" viewBox="0 0 32 41" fill="none" xmlns="http://www.w3.org/2000/svg">
<ellipse cx="16" cy="11.7692" rx="10.4828" ry="7.69231" fill="black"/>
<path d="M31.5 25.6154C31.5 33.8176 24.5791 40.5 16 40.5C7.42092 40.5 0.5 33.8176 0.5 25.6154C0.5 17.4131 7.42092 10.7308 16 10.7308C24.5791 10.7308 31.5 17.4131 31.5 25.6154Z" fill="#DC2626" stroke="black"/>
<path d="M28.6897 1C24.652 2.53846 22.9216 5.10256 21.768 8.17949M3.31034 1C7.34796 2.53846 9.07837 5.10256 10.232 8.17949" stroke="black"/>
<path d="M16.5517 39.9744V11.2564" stroke="black"/>
<ellipse cx="11.5862" cy="26.1282" rx="2.75862" ry="2.5641" fill="black"/>
<ellipse cx="24.8276" cy="33.3077" rx="2.75862" ry="2.5641" fill="black"/>
<ellipse cx="8.27586" cy="33.3077" rx="2.75862" ry="2.5641" fill="black"/>
<ellipse cx="21.5172" cy="26.1282" rx="2.75862" ry="2.5641" fill="black"/>
<ellipse cx="24.8276" cy="18.9487" rx="2.75862" ry="2.5641" fill="black"/>
<ellipse cx="7.17241" cy="18.9487" rx="2.75862" ry="2.5641" fill="black"/>
<ellipse cx="16.5517" cy="13.3077" rx="6.62069" ry="3.07692" fill="black"/>
</svg>
