<svg width="181" height="128" viewBox="0 0 181 128" fill="none" xmlns="http://www.w3.org/2000/svg">
<path d="M68.2613 92.1609C73.8483 101.372 72.252 110.682 70.7555 114.187" stroke="black" stroke-width="2"/>
<path d="M73.2497 89.1574C78.8366 98.3681 77.2403 107.679 75.7438 111.183" stroke="black" stroke-width="2"/>
<path d="M57.6308 108.18L47.3103 97.5029L61.7765 77.644L86.7948 73.4988C86.9128 73.3779 87.0689 73.2834 87.2569 73.2178L102.208 64.1283C102.304 64.0305 102.427 63.9566 102.573 63.9066L115.152 56.2595L128.121 48.4132C128.229 48.3027 128.375 48.2177 128.554 48.1592L158.051 30.8422L161.304 28.9325C166.472 26.38 176.869 20.7676 179.472 24.119C182.074 27.4704 174.439 33.7353 170.217 37.0973L153.536 48.4132L138.097 58.0345L111.66 74.5095L57.6308 108.18Z" fill="#65A30D"/>
<path d="M128.121 48.4132L161.304 28.9325C166.472 26.38 176.869 20.7676 179.472 24.119C182.074 27.4704 174.439 33.7353 170.217 37.0973L153.536 48.4132M128.121 48.4132C129.452 47.0516 136.602 49.5543 138.098 58.0421M128.121 48.4132L115.152 56.2595M102.208 64.1283C103.538 62.7668 110.163 66.0217 111.66 74.5095M102.208 64.1283L86.7948 73.4988M102.208 64.1283L115.152 56.2595M143.506 39.4248C144.836 38.0633 152.039 39.9254 153.536 48.4132M153.536 48.4132L57.6308 108.18L47.3103 97.5029L61.7765 77.644L86.7948 73.4988M86.7948 73.4988C88.125 72.1372 95.275 74.6399 96.7715 83.1277C94.2773 74.1172 88.125 72.1372 86.7948 73.4988ZM115.152 56.2595C115.152 56.2595 123.121 57.7212 124.618 66.209M158.051 30.8422C158.051 30.8422 166.033 30.3744 167.03 39.0987" stroke="#182707"/>
<path d="M79.7345 75.6417L64.2707 81.1481C62.4546 75.2784 36.0957 -5.83469 56.0147 5.06129C77.4304 16.776 84.7126 64.897 79.7345 75.6417Z" fill="#D4D4D4" stroke="black"/>
<path d="M63.8074 81.9684L52.2987 92.6615C48.2365 86.961 -13.784 10.6367 13.9943 13.5984C43.8599 16.7827 66.5252 67.7101 63.8074 81.9684Z" fill="#D4D4D4" stroke="black"/>
<path d="M94.2179 80.5548L82.2287 91.2859C88.6681 91.2859 183.07 96.2232 165.958 82.6416C147.559 68.0396 104.709 75.6363 94.2179 80.5548Z" fill="#D4D4D4" stroke="black"/>
<path d="M79.0201 93.0024L64.3933 103.955C71.174 105.632 174.47 135.711 160.487 114.819C145.454 92.357 90.7321 87.1523 79.0201 93.0024Z" fill="#D4D4D4" stroke="black"/>
<path d="M62.2753 100.17L72.252 88.1562" stroke="#182707" stroke-width="2"/>
<path d="M56.2893 95.1644L67.2637 84.1516" stroke="#182707" stroke-width="2"/>
<path d="M70.2567 86.1539L87.217 77.1434" stroke="#182707" stroke-width="2"/>
<path d="M64.7683 105.677C64.7683 112.314 59.4072 117.691 52.7975 117.691C46.1879 117.691 40.8267 112.314 40.8267 105.677C40.8267 99.0395 46.1879 93.6621 52.7975 93.6621C59.4072 93.6621 64.7683 99.0395 64.7683 105.677Z" fill="#65A30D" stroke="#182707"/>
<ellipse rx="8.99475" ry="6.67567" transform="matrix(0.705952 -0.708259 0.705784 0.708427 45.912 98.4708)" fill="#155e75"/>
<ellipse rx="9.00963" ry="6.77748" transform="matrix(0.163571 -0.986532 0.986346 0.164689 60.4573 105.169)" fill="#155e75"/>
<path d="M53.0804 104.812L48.9882 103.349C45.9605 102.267 42.7115 104.285 42.337 107.48L41.7634 112.374C41.4924 114.686 42.8523 116.878 45.0434 117.661L46.7914 118.286C48.8898 119.036 51.2323 118.306 52.5345 116.496L55.4524 112.439C57.3951 109.739 56.211 105.931 53.0804 104.812Z" fill="#4D7C0F" stroke="#365314"/>
</svg>
