<svg width="40" height="40" viewBox="0 0 40 40" fill="none" xmlns="http://www.w3.org/2000/svg">
<path d="M0 0L12 28H0V0Z" fill="#EA580C"/>
<path d="M19.5 0.5L27 28H13L19.5 0.5Z" fill="#EA580C"/>
<path d="M40 0L28 28H40V0Z" fill="#EA580C"/>
<path fill-rule="evenodd" clip-rule="evenodd" d="M40 30H0V40H40V30ZM20 38C21.6569 38 23 36.6569 23 35C23 33.3431 21.6569 32 20 32C18.3431 32 17 33.3431 17 35C17 36.6569 18.3431 38 20 38ZM10 35C10 36.6569 8.65685 38 7 38C5.34315 38 4 36.6569 4 35C4 33.3431 5.34315 32 7 32C8.65685 32 10 33.3431 10 35ZM33 38C34.6569 38 36 36.6569 36 35C36 33.3431 34.6569 32 33 32C31.3431 32 30 33.3431 30 35C30 36.6569 31.3431 38 33 38Z" fill="#EA580C"/>
</svg>
