<svg width="40" height="40" viewBox="0 0 40 40" fill="none" xmlns="http://www.w3.org/2000/svg">
<path d="M5.56925 21.628C5.56925 24.0173 5.91458 26.2293 6.60525 28.264C7.29592 30.2987 8.31325 32.184 9.65725 33.92L7.80925 35.18C6.35325 33.4067 5.17725 31.372 4.28125 29.076C3.40392 26.7613 2.96525 24.2787 2.96525 21.628C2.96525 18.9773 3.40392 16.504 4.28125 14.208C5.17725 11.8933 6.35325 9.84933 7.80925 8.076L9.65725 9.336C8.31325 11.072 7.29592 12.9573 6.60525 14.992C5.91458 17.0267 5.56925 19.2387 5.56925 21.628ZM19.2914 26.992C20.742 26.992 21.798 26.7467 22.4594 26.256C23.1207 25.7653 23.4514 25.072 23.4514 24.176C23.4514 23.6427 23.334 23.184 23.0994 22.8C22.886 22.416 22.566 22.0747 22.1394 21.776C21.734 21.456 21.2327 21.168 20.6354 20.912C20.038 20.6347 19.3554 20.368 18.5874 20.112C17.8194 19.8347 17.0727 19.536 16.3474 19.216C15.6434 18.8747 15.014 18.4587 14.4594 17.968C13.926 17.4773 13.4887 16.8907 13.1474 16.208C12.8274 15.5253 12.6674 14.704 12.6674 13.744C12.6674 11.7387 13.3607 10.1707 14.7474 9.04C16.134 7.888 18.022 7.312 20.4114 7.312C21.798 7.312 23.0247 7.472 24.0914 7.792C25.1794 8.09067 26.0327 8.42133 26.6514 8.784L25.4034 12.048C24.678 11.6427 23.878 11.3333 23.0034 11.12C22.15 10.9067 21.2647 10.8 20.3474 10.8C19.2594 10.8 18.406 11.024 17.7874 11.472C17.19 11.92 16.8914 12.5493 16.8914 13.36C16.8914 13.8507 16.9874 14.2773 17.1794 14.64C17.3927 14.9813 17.6807 15.2907 18.0434 15.568C18.4274 15.8453 18.8647 16.1013 19.3554 16.336C19.8674 16.5707 20.422 16.7947 21.0194 17.008C22.0647 17.392 22.9927 17.7867 23.8034 18.192C24.6354 18.576 25.3287 19.0453 25.8834 19.6C26.4594 20.1333 26.8967 20.7733 27.1954 21.52C27.494 22.2453 27.6434 23.1307 27.6434 24.176C27.6434 26.1813 26.9287 27.7387 25.4994 28.848C24.0914 29.936 22.022 30.48 19.2914 30.48C18.374 30.48 17.5314 30.416 16.7634 30.288C16.0167 30.1813 15.3447 30.0427 14.7474 29.872C14.1714 29.7013 13.67 29.5307 13.2434 29.36C12.8167 29.168 12.4754 28.9973 12.2194 28.848L13.4034 25.552C13.9794 25.872 14.758 26.192 15.7394 26.512C16.7207 26.832 17.9047 26.992 19.2914 26.992ZM34.4246 21.628C34.4246 19.2387 34.0793 17.0267 33.3886 14.992C32.698 12.9573 31.6806 11.072 30.3366 9.336L32.1846 8.076C33.6406 9.84933 34.8073 11.8933 35.6846 14.208C36.5806 16.504 37.0286 18.9773 37.0286 21.628C37.0286 24.2787 36.5806 26.7613 35.6846 29.076C34.8073 31.372 33.6406 33.4067 32.1846 35.18L30.3366 33.92C31.6806 32.184 32.698 30.2987 33.3886 28.264C34.0793 26.2293 34.4246 24.0173 34.4246 21.628Z" fill="#F59E0B"/>
<path d="M18 3V38" stroke="#F59E0B" stroke-width="2"/>
<path d="M23 3V38" stroke="#F59E0B" stroke-width="2"/>
</svg>
