<svg width="40" height="40" viewBox="0 0 40 40" fill="none" xmlns="http://www.w3.org/2000/svg">
<mask id="path-1-inside-1_5_6" fill="white">
<path fill-rule="evenodd" clip-rule="evenodd" d="M40 0H0V40H40V0ZM4 23.5L16.5 34.5L36 10.5L31.5 5L16.5 23.5L9 16.5L4 23.5Z"/>
</mask>
<path fill-rule="evenodd" clip-rule="evenodd" d="M40 0H0V40H40V0ZM4 23.5L16.5 34.5L36 10.5L31.5 5L16.5 23.5L9 16.5L4 23.5Z" fill="white"/>
<path d="M0 0V-1H-1V0H0ZM40 0H41V-1H40V0ZM0 40H-1V41H0V40ZM40 40V41H41V40H40ZM16.5 34.5L15.8394 35.2507L16.6202 35.9379L17.2761 35.1306L16.5 34.5ZM4 23.5L3.18627 22.9188L2.66117 23.6539L3.33937 24.2507L4 23.5ZM36 10.5L36.7761 11.1306L37.2903 10.4978L36.774 9.86676L36 10.5ZM31.5 5L32.274 4.36676L31.4965 3.41653L30.7232 4.3702L31.5 5ZM16.5 23.5L15.8177 24.2311L16.6015 24.9626L17.2768 24.1298L16.5 23.5ZM9 16.5L9.68232 15.7689L8.84889 14.9911L8.18627 15.9188L9 16.5ZM0 1H40V-1H0V1ZM1 40V0H-1V40H1ZM40 39H0V41H40V39ZM39 0V40H41V0H39ZM17.1606 33.7493L4.66063 22.7493L3.33937 24.2507L15.8394 35.2507L17.1606 33.7493ZM35.2239 9.86941L15.7239 33.8694L17.2761 35.1306L36.7761 11.1306L35.2239 9.86941ZM30.726 5.63324L35.226 11.1332L36.774 9.86676L32.274 4.36676L30.726 5.63324ZM17.2768 24.1298L32.2768 5.6298L30.7232 4.3702L15.7232 22.8702L17.2768 24.1298ZM8.31768 17.2311L15.8177 24.2311L17.1823 22.7689L9.68232 15.7689L8.31768 17.2311ZM4.81373 24.0812L9.81373 17.0812L8.18627 15.9188L3.18627 22.9188L4.81373 24.0812Z" fill="#E5E5E5" mask="url(#path-1-inside-1_5_6)"/>
</svg>
